<svg width="145" height="40" viewBox="0 0 145 40" fill="none" xmlns="http://www.w3.org/2000/svg">
<path d="M139.215 39.9968C142.282 39.9968 144.769 37.5103 144.769 34.4431C144.769 31.3759 142.282 28.8894 139.215 28.8894C136.148 28.8894 133.661 31.3759 133.661 34.4431C133.661 37.5103 136.148 39.9968 139.215 39.9968Z" fill="#1CE783"/>
<path d="M88.3264 3.40717H77.1949V12.8559H74.1515C71.171 12.8559 68.2905 13.9351 66.0431 15.8937L65.4562 12.8577H57.333V39.3452H68.4015V28.782C68.4015 24.6279 71.7689 21.2623 75.9231 21.2623H77.193V39.347H88.3245V21.2623H92.6638V12.8559H88.3245V3.40717H88.3264Z" fill="#003534"/>
<path d="M100.463 11.1218C103.532 11.1159 106.015 8.62381 106.009 5.55557C106.003 2.48732 103.51 0.00480028 100.441 0.0106929C97.3719 0.0165854 94.8886 2.50866 94.8945 5.5769C94.9003 8.64515 97.3933 11.1277 100.463 11.1218Z" fill="#003534"/>
<path d="M106.007 12.8558H94.8926V39.3396H106.007V12.8558Z" fill="#003534"/>
<path d="M132.113 30.4963C131.76 27.6176 130.025 25.6794 127.554 24.4575C125.83 23.606 123.942 23.0858 122.124 22.4267C121.307 22.1305 120.469 21.8936 119.671 21.5567C119.042 21.2901 118.706 20.7625 118.897 20.0609C119.082 19.3759 119.671 19.2297 120.284 19.2C121.465 19.1408 122.057 19.848 122.344 20.9476C125.401 20.4589 128.401 19.9813 131.454 19.4925C130.917 16.9119 129.481 15.1162 127.363 13.8685C124.706 12.3023 121.757 12.0876 118.782 12.3634C115.783 12.6411 113.057 13.613 110.896 15.8771C108.151 18.7557 108.562 23.7781 111.751 26.1644C113.614 27.5565 115.741 28.2859 117.94 28.8931C119.103 29.2134 120.276 29.5281 121.387 29.9835C121.763 30.1371 122.228 30.7573 122.179 31.0942C122.113 31.5496 121.672 32.1124 121.241 32.3197C120.245 32.7992 119.216 32.3086 118.74 31.2923C118.647 31.0942 118.579 30.8832 118.47 30.5962C115.039 31.0146 111.62 31.433 108.175 31.8532C108.701 34.3709 110.093 36.2499 112.057 37.7216C114.308 39.41 116.948 39.9135 119.682 39.9894C122.938 40.0783 126.093 39.6358 128.816 37.668C131.245 35.913 132.491 33.5545 132.113 30.4981V30.4963Z" fill="#003534"/>
<path d="M18.0625 12.8558L14.4359 20.9383L10.9297 12.8558H0C4.85208 21.975 9.61531 30.9387 14.4359 39.9968C19.2769 30.9017 24.0401 21.938 28.8755 12.8558H18.0625Z" fill="#003534"/>
<path d="M54.4928 23.8115C53.2229 16.2677 46.0752 11.1823 38.5315 12.4523C30.9858 13.7222 25.8986 20.8661 27.1704 28.4099C28.4404 35.9537 35.588 41.039 43.1318 39.7691C49.5297 38.6917 54.1596 33.3916 54.6446 27.2048L46.6658 28.5469C45.855 30.4814 44.1018 31.9717 41.8804 32.3456C39.1294 32.8084 36.497 31.42 35.2511 29.0893L54.6816 25.8182C54.6668 25.1536 54.6057 24.4834 54.491 23.8096L54.4928 23.8115ZM34.6976 24.5723C35.2918 22.212 37.2282 20.3052 39.7829 19.8757C42.3376 19.4462 44.7923 20.6125 46.1252 22.6489L34.6976 24.5723Z" fill="#003534"/>
</svg>
