<svg width="32" height="32" viewBox="0 0 32 32" fill="none" xmlns="http://www.w3.org/2000/svg">
<path fill-rule="evenodd" clip-rule="evenodd" d="M25.8885 11.5C25.4338 13.504 23.6416 15 21.5 15C19.3584 15 17.5662 13.504 17.1115 11.5H3V9.5H17.1115C17.5662 7.49601 19.3584 6 21.5 6C23.6416 6 25.4338 7.49601 25.8885 9.5H29V11.5H25.8885ZM24 10.5C24 11.8807 22.8807 13 21.5 13C20.1193 13 19 11.8807 19 10.5C19 9.11929 20.1193 8 21.5 8C22.8807 8 24 9.11929 24 10.5Z" fill="#242424"/>
<path fill-rule="evenodd" clip-rule="evenodd" d="M6.11151 20.5C6.56624 18.496 8.35841 17 10.5 17C12.6416 17 14.4338 18.496 14.8885 20.5L29 20.5V22.5L14.8885 22.5C14.4338 24.504 12.6416 26 10.5 26C8.35841 26 6.56624 24.504 6.11151 22.5H3V20.5H6.11151ZM8 21.5C8 20.1193 9.11929 19 10.5 19C11.8807 19 13 20.1193 13 21.5C13 22.8807 11.8807 24 10.5 24C9.11929 24 8 22.8807 8 21.5Z" fill="#242424"/>
</svg>
