<svg width="32" height="32" viewBox="0 0 32 32" fill="none" xmlns="http://www.w3.org/2000/svg">
<path d="M3 7.5C3 6.67157 3.67157 6 4.5 6C5.32843 6 6 6.67157 6 7.5C6 8.32843 5.32843 9 4.5 9C3.67157 9 3 8.32843 3 7.5Z" fill="#242424"/>
<path d="M29 8.5H10V6.5H29V8.5Z" fill="#242424"/>
<path d="M4.5 14.5C3.67157 14.5 3 15.1716 3 16C3 16.8284 3.67157 17.5 4.5 17.5C5.32843 17.5 6 16.8284 6 16C6 15.1716 5.32843 14.5 4.5 14.5Z" fill="#242424"/>
<path d="M10 17H29V15H10V17Z" fill="#242424"/>
<path d="M4.5 23C3.67158 23 3 23.6716 3 24.5C3 25.3284 3.67158 26 4.5 26C5.32843 26 6 25.3284 6 24.5C6 23.6716 5.32843 23 4.5 23Z" fill="#242424"/>
<path d="M10 25.5H29V23.5H10V25.5Z" fill="#242424"/>
</svg>
