<svg width="32" height="32" viewBox="0 0 32 32" fill="none" xmlns="http://www.w3.org/2000/svg">
<path fill-rule="evenodd" clip-rule="evenodd" d="M23.6035 25.0178C21.4214 26.8775 18.5918 28 15.5 28C8.59644 28 3 22.4036 3 15.5C3 8.59644 8.59644 3 15.5 3C22.4036 3 28 8.59644 28 15.5C28 18.5918 26.8775 21.4215 25.0177 23.6036L29 27.5859L27.5858 29.0001L23.6035 25.0178ZM26 15.5C26 21.299 21.299 26 15.5 26C9.70101 26 5 21.299 5 15.5C5 9.70101 9.70101 5 15.5 5C21.299 5 26 9.70101 26 15.5Z" fill="#242424"/>
</svg>
