<svg width="32" height="32" viewBox="0 0 32 32" fill="none" xmlns="http://www.w3.org/2000/svg">
<path fill-rule="evenodd" clip-rule="evenodd" d="M21 13C21 15.7614 18.7614 18 16 18C13.2386 18 11 15.7614 11 13C11 10.2386 13.2386 8 16 8C18.7614 8 21 10.2386 21 13ZM19 13C19 14.6569 17.6569 16 16 16C14.3431 16 13 14.6569 13 13C13 11.3431 14.3431 10 16 10C17.6569 10 19 11.3431 19 13Z" fill="#242424"/>
<path fill-rule="evenodd" clip-rule="evenodd" d="M26 13C26 17.249 20.081 24.4304 17.3506 27.5172C16.532 28.4426 16 29 16 29C16 29 15.468 28.4426 14.6494 27.5172C11.919 24.4304 6 17.249 6 13C6 7.47715 10.4772 3 16 3C21.5228 3 26 7.47715 26 13ZM24 13C24 13.8703 23.5736 15.1987 22.6726 16.8892C21.8037 18.5193 20.6218 20.2536 19.4041 21.8656C18.1921 23.4702 16.9753 24.9134 16.0591 25.9576L16 26.0249L15.9409 25.9576C15.0247 24.9134 13.8079 23.4702 12.5959 21.8656C11.3782 20.2536 10.1963 18.5193 9.32744 16.8892C8.42638 15.1987 8 13.8703 8 13C8 8.58172 11.5817 5 16 5C20.4183 5 24 8.58172 24 13Z" fill="#242424"/>
</svg>
