<svg width="153" height="80" viewBox="0 0 153 80" fill="none" xmlns="http://www.w3.org/2000/svg">
<g clip-path="url(#clip0_358_6236)">
<path d="M137.739 46.9098C140.55 46.9098 142.828 44.627 142.828 41.8109C142.828 38.9949 140.55 36.712 137.739 36.712C134.929 36.712 132.65 38.9949 132.65 41.8109C132.65 44.627 134.929 46.9098 137.739 46.9098Z" fill="#1CE783"/>
<path d="M91.1105 13.3166H80.911V21.9915H78.1223C75.3914 21.9915 72.752 22.9824 70.6928 24.7806L70.1551 21.9932H62.7119V46.3116H72.8538V36.6134C72.8538 32.7995 75.9393 29.7095 79.7457 29.7095H80.9093V46.3132H91.1088V29.7095H95.0848V21.9915H91.1088V13.3166H91.1105Z" fill="#003534"/>
<path d="M102.231 20.3994C105.043 20.394 107.319 18.106 107.313 15.2891C107.308 12.4721 105.024 10.1929 102.211 10.1983C99.399 10.2037 97.1235 12.4917 97.1289 15.3087C97.1343 18.1256 99.4185 20.4049 102.231 20.3994Z" fill="#003534"/>
<path d="M107.311 21.9915H97.127V46.3065H107.311V21.9915Z" fill="#003534"/>
<path d="M131.231 38.1873C130.907 35.5444 129.318 33.7649 127.053 32.6431C125.474 31.8613 123.744 31.3837 122.078 30.7786C121.33 30.5067 120.562 30.2891 119.831 29.9798C119.254 29.735 118.947 29.2506 119.122 28.6065C119.291 27.9776 119.831 27.8433 120.392 27.8161C121.474 27.7618 122.017 28.411 122.28 29.4206C125.08 28.9719 127.83 28.5334 130.627 28.0847C130.135 25.7154 128.819 24.0668 126.879 22.9212C124.444 21.4833 121.742 21.2862 119.016 21.5394C116.268 21.7944 113.77 22.6867 111.79 24.7653C109.275 27.4082 109.651 32.0193 112.574 34.2102C114.28 35.4883 116.229 36.1579 118.245 36.7154C119.31 37.0095 120.385 37.2984 121.403 37.7165C121.747 37.8576 122.173 38.427 122.129 38.7363C122.068 39.1544 121.664 39.6711 121.269 39.8614C120.356 40.3016 119.413 39.8512 118.977 38.9181C118.893 38.7363 118.83 38.5425 118.73 38.2791C115.587 38.6632 112.454 39.0473 109.297 39.4331C109.779 41.7446 111.054 43.4698 112.854 44.821C114.917 46.371 117.335 46.8333 119.841 46.903C122.824 46.9846 125.715 46.5784 128.21 44.7717C130.436 43.1604 131.577 40.9951 131.231 38.189V38.1873Z" fill="#003534"/>
<path d="M26.729 21.9915L23.4061 29.4121L20.1934 21.9915H10.1787C14.6246 30.3639 18.989 38.5935 23.4061 46.9098C27.8418 38.5595 32.2062 30.3299 36.6368 21.9915H26.729Z" fill="#003534"/>
<path d="M60.11 32.0499C58.9463 25.1239 52.3971 20.455 45.4849 21.621C38.571 22.7869 33.9097 29.3458 35.075 36.2718C36.2387 43.1978 42.7879 47.8667 49.7001 46.7008C55.5623 45.7116 59.8047 40.8455 60.2491 35.1654L52.9382 36.3976C52.1953 38.1737 50.5889 39.5419 48.5534 39.8852C46.0328 40.3101 43.6207 39.0354 42.4792 36.8956L60.283 33.8923C60.2694 33.2822 60.2134 32.6669 60.1083 32.0482L60.11 32.0499ZM41.972 32.7485C42.5165 30.5814 44.2908 28.8308 46.6316 28.4365C48.9724 28.0422 51.2216 29.113 52.4429 30.9826L41.972 32.7485Z" fill="#003534"/>
<path d="M81.5027 68.1111L82.3033 66.7344C83.6773 67.7202 85.1429 68.2487 86.8595 68.2487C89.492 68.2487 91.1645 66.804 91.1645 64.0268V62.6281C90.1332 64.0048 88.6914 65.1282 86.5168 65.1282C83.6773 65.1282 80.9531 62.9714 80.9531 59.5755V59.5296C80.9531 56.0658 83.6773 53.931 86.5168 53.931C88.7372 53.931 90.157 55.0324 91.1425 56.3173V54.1843H92.9049V63.981C92.9049 65.8166 92.3791 67.1933 91.3935 68.1791C90.3181 69.2566 88.783 69.7614 86.8832 69.7614C84.9834 69.7614 83.0819 69.2107 81.5027 68.1094V68.1111ZM91.212 59.5534V59.5075C91.212 57.0753 89.1053 55.493 86.8612 55.493C84.617 55.493 82.763 57.0533 82.763 59.4854V59.5313C82.763 61.9176 84.6628 63.5696 86.8612 63.5696C89.0595 63.5696 91.212 61.9414 91.212 59.5551V59.5534Z" fill="#797979"/>
<path d="M95.8594 54.1843H97.6218V57.281C98.492 55.3077 100.209 53.9089 102.453 53.9769V55.8805H102.315C99.7285 55.8805 97.6218 57.7382 97.6218 61.3176V66.0443H95.8594V54.1826V54.1843Z" fill="#797979"/>
<path d="M102.913 60.1721V60.1262C102.913 56.7541 105.5 53.931 109.096 53.931C112.692 53.931 115.255 56.7303 115.255 60.0803V60.1262C115.255 63.4983 112.622 66.3214 109.05 66.3214C105.478 66.3214 102.913 63.5221 102.913 60.1721ZM113.447 60.1721V60.1262C113.447 57.5801 111.547 55.4913 109.05 55.4913C106.553 55.4913 104.723 57.5801 104.723 60.0803V60.1262C104.723 62.6722 106.601 64.7373 109.096 64.7373C111.591 64.7373 113.447 62.6484 113.447 60.1721Z" fill="#797979"/>
<path d="M117.271 61.5488V54.1843H119.034V61.1137C119.034 63.3164 120.201 64.6931 122.307 64.6931C124.414 64.6931 125.856 63.2025 125.856 60.976V54.1843H127.596V66.046H125.856V63.9809C125.055 65.2659 123.841 66.2975 121.804 66.2975C118.964 66.2975 117.27 64.3702 117.27 61.5488H117.271Z" fill="#797979"/>
<path d="M130.575 54.1843H132.338V56.5706C133.321 55.1718 134.673 53.9327 136.872 53.9327C139.711 53.9327 142.527 56.1814 142.527 60.082V60.1279C142.527 63.9827 139.733 66.2993 136.872 66.2993C134.673 66.2993 133.254 65.1299 132.338 63.7753V69.7172H130.575V54.1843ZM140.719 60.15V60.1041C140.719 57.2827 138.819 55.5151 136.551 55.5151C134.283 55.5151 132.27 57.3966 132.27 60.0803V60.1262C132.27 62.8796 134.354 64.7152 136.551 64.7152C138.748 64.7152 140.719 63.0173 140.719 60.15Z" fill="#797979"/>
</g>
<defs>
<clipPath id="clip0_358_6236">
<rect width="153" height="80" fill="white"/>
</clipPath>
</defs>
</svg>
