<svg width="245" height="104" viewBox="0 0 245 104" fill="none" xmlns="http://www.w3.org/2000/svg">
<path d="M142.327 59.378C137.912 59.378 134.543 55.9501 134.543 51.7676C134.543 47.6138 137.941 44.1866 142.327 44.1866C146.771 44.1866 150.14 47.6432 150.14 51.7676C150.14 55.9501 146.742 59.3773 142.327 59.3773V59.378ZM142.327 55.514C144.448 55.514 146.016 53.8298 146.016 51.797C146.016 49.7635 144.448 48.0786 142.327 48.0786C140.206 48.0786 138.667 49.7635 138.667 51.7963C138.667 53.8298 140.206 55.514 142.327 55.514ZM124.816 66C121.447 66 118.862 64.5188 117.555 61.8462L120.982 59.9877C121.621 61.2365 122.812 62.2242 124.758 62.2242C127.198 62.2242 128.853 60.5106 128.853 57.6931V57.4313C128.069 58.419 126.675 59.1743 124.642 59.1743C120.604 59.1743 117.381 56.0376 117.381 51.7676C117.381 47.6138 120.75 44.216 125.165 44.216C129.666 44.216 132.978 47.4395 132.978 51.7676V57.5769C132.978 62.689 129.492 66 124.816 66ZM125.107 55.2823C127.169 55.2823 128.796 53.7423 128.796 51.6808C128.796 49.6179 127.169 48.108 125.107 48.108C123.073 48.108 121.447 49.6186 121.447 51.6808C121.447 53.743 123.073 55.2823 125.107 55.2823ZM108.712 59.378C104.297 59.378 100.928 55.9501 100.928 51.7676C100.928 47.6138 104.326 44.1866 108.712 44.1866C113.156 44.1866 116.525 47.6432 116.525 51.7676C116.525 55.9501 113.127 59.3773 108.712 59.3773V59.378ZM108.712 55.514C110.832 55.514 112.401 53.8298 112.401 51.797C112.401 49.7635 110.832 48.0786 108.712 48.0786C106.591 48.0786 105.052 49.7635 105.052 51.7963C105.052 53.8298 106.592 55.514 108.712 55.514ZM94.6602 38H98.7846V59H94.6602V38Z" fill="#242424"/>
</svg>
