<svg width="40" height="40" viewBox="0 0 40 40" fill="none" xmlns="http://www.w3.org/2000/svg">
<path d="M0.4 20C0.4 9.17522 9.17522 0.4 20 0.4C30.8248 0.4 39.6 9.17522 39.6 20C39.6 30.8248 30.8248 39.6 20 39.6C9.17522 39.6 0.4 30.8248 0.4 20Z" fill="#1CE783"/>
<path d="M0.4 20C0.4 9.17522 9.17522 0.4 20 0.4C30.8248 0.4 39.6 9.17522 39.6 20C39.6 30.8248 30.8248 39.6 20 39.6C9.17522 39.6 0.4 30.8248 0.4 20Z" stroke="#242424" stroke-width="0.8"/>
<path d="M30.0001 10H14.0001V12H26.586L9.31104 29.275L10.7252 30.6892L28.0001 13.4144V26H30.0001V10Z" fill="#242424"/>
</svg>
