<svg width="32" height="32" viewBox="0 0 32 32" fill="none" xmlns="http://www.w3.org/2000/svg">
<path fill-rule="evenodd" clip-rule="evenodd" d="M24.9797 23.5397V17.2933C24.9797 13.9472 23.1931 12.3899 20.8112 12.3899C18.8891 12.3899 18.0277 13.4469 17.5477 14.1888V12.6453H13.9264C13.9744 13.6677 13.9264 23.5403 13.9264 23.5403H17.5477V17.4555C17.5477 17.1301 17.5712 16.8048 17.6672 16.5717C17.9285 15.9216 18.5243 15.248 19.5243 15.248C20.8352 15.248 21.3589 16.2469 21.3589 17.7109V23.5397H24.9797ZM10.1115 11.1584C11.3739 11.1584 12.1605 10.3216 12.1605 9.2752C12.1371 8.20693 11.3739 7.3936 10.1355 7.3936C8.89707 7.3936 8.08693 8.20693 8.08693 9.2752C8.08693 10.3216 8.87307 11.1584 10.0885 11.1584H10.1115ZM11.9221 23.5397V12.6453H8.30133V23.5397H11.9221ZM0 0H32V32H0V0Z" fill="#1CE783"/>
</svg>
