<svg width="50" height="40" viewBox="0 0 50 40" fill="none" xmlns="http://www.w3.org/2000/svg">
<path d="M32.9474 0H17.0526C7.63158 0 0 7.41238 0 16.5628C0 22.7483 3.52632 28.167 8.68421 30.9786C7.78947 32.7678 6.68421 34.8637 5.31579 36.6529C4.10526 38.2376 5.68421 40.4358 7.63158 39.9246C14 38.2888 19.7895 35.1193 23.1053 33.1257H32.9474C42.3684 33.1257 50 25.7133 50 16.5628C50 7.41238 42.3684 0 32.9474 0Z" fill="#1CE783"/>
<path fill-rule="evenodd" clip-rule="evenodd" d="M18.9471 24.5379C19.6313 23.8222 20.2629 23.0043 20.8419 22.0841C22.3682 19.6815 23.1577 17.2788 23.1577 14.8762C23.1577 13.496 22.7366 12.3202 21.8945 11.4512C21.0524 10.5821 20.0524 10.1221 18.8945 10.1221C17.7366 10.1221 16.7366 10.531 15.8945 11.3489C15.0524 12.1669 14.6313 13.087 14.6313 14.1605C14.6313 15.1829 14.9998 16.1031 15.684 16.921C16.3682 17.79 17.5261 17.9434 18.5261 17.9945C18.3682 19.3236 17.5787 20.7039 16.8419 21.6752L16.8419 21.6752C16.7366 21.8285 16.6313 21.9819 16.4735 22.1352C16.2629 22.3397 16.2629 22.6976 16.4735 22.902L18.0524 24.5379C18.3156 24.7935 18.7366 24.7935 18.9471 24.5379ZM31.1591 24.5379C31.8433 23.8222 32.4748 23.0043 33.0538 22.0841C34.6327 19.6815 35.4222 17.2788 35.3696 14.8762C35.3696 13.496 34.9485 12.3202 34.1064 11.4512C33.2643 10.5821 32.2643 10.1221 31.1064 10.1221C29.9485 10.1221 28.9485 10.531 28.1064 11.3489C27.2643 12.1669 26.8433 13.087 26.8433 14.1605C26.8433 15.1829 27.2117 16.1031 27.8959 16.921C28.5801 17.79 29.738 17.9434 30.738 17.9945C30.5801 19.3236 29.7906 20.7039 29.0538 21.6752C28.9485 21.8285 28.8433 21.9819 28.6854 22.1352C28.4748 22.3397 28.4748 22.6976 28.6854 22.902L30.2643 24.5379C30.5275 24.7935 30.9485 24.7935 31.1591 24.5379Z" fill="#242424"/>
</svg>
