<svg width="24" height="24" viewBox="0 0 24 24" fill="none" xmlns="http://www.w3.org/2000/svg">
<path fill-rule="evenodd" clip-rule="evenodd" d="M18.9055 8.75C18.5725 10.0439 17.3979 11 16 11C14.6021 11 13.4275 10.0439 13.0945 8.75H3V7.25H13.0945C13.4275 5.95608 14.6021 5 16 5C17.3979 5 18.5725 5.95608 18.9055 7.25H21V8.75H18.9055ZM17.5 8C17.5 8.82843 16.8284 9.5 16 9.5C15.1716 9.5 14.5 8.82843 14.5 8C14.5 7.17157 15.1716 6.5 16 6.5C16.8284 6.5 17.5 7.17157 17.5 8Z" fill="#242424"/>
<path fill-rule="evenodd" clip-rule="evenodd" d="M8 19C9.39788 19 10.5725 18.0439 10.9055 16.75H21V15.25H10.9055C10.5725 13.9561 9.39788 13 8 13C6.60212 13 5.42755 13.9561 5.09451 15.25H3V16.75H5.09451C5.42755 18.0439 6.60212 19 8 19ZM9.5 16C9.5 16.8284 8.82843 17.5 8 17.5C7.17157 17.5 6.5 16.8284 6.5 16C6.5 15.1716 7.17157 14.5 8 14.5C8.82843 14.5 9.5 15.1716 9.5 16Z" fill="#242424"/>
</svg>
