<svg width="24" height="24" viewBox="0 0 24 24" fill="none" xmlns="http://www.w3.org/2000/svg">
<path d="M3 6.25C3 5.55964 3.55964 5 4.25 5C4.94036 5 5.5 5.55964 5.5 6.25C5.5 6.94036 4.94036 7.5 4.25 7.5C3.55964 7.5 3 6.94036 3 6.25Z" fill="#242424"/>
<path d="M21 7H8.25V5.5H21V7Z" fill="#242424"/>
<path d="M4.25 10.75C3.55964 10.75 3 11.3096 3 12C3 12.6904 3.55964 13.25 4.25 13.25C4.94036 13.25 5.5 12.6904 5.5 12C5.5 11.3096 4.94036 10.75 4.25 10.75Z" fill="#242424"/>
<path d="M8.25 12.75H21V11.25H8.25V12.75Z" fill="#242424"/>
<path d="M4.25 16.5C3.55964 16.5 3 17.0596 3 17.75C3 18.4404 3.55964 19 4.25 19C4.94036 19 5.5 18.4404 5.5 17.75C5.5 17.0596 4.94036 16.5 4.25 16.5Z" fill="#242424"/>
<path d="M8.25 18.5H21V17H8.25V18.5Z" fill="#242424"/>
</svg>
