<svg width="24" height="24" viewBox="0 0 24 24" fill="none" xmlns="http://www.w3.org/2000/svg">
<path fill-rule="evenodd" clip-rule="evenodd" d="M15.5 9.5C15.5 11.433 13.933 13 12 13C10.067 13 8.5 11.433 8.5 9.5C8.5 7.567 10.067 6 12 6C13.933 6 15.5 7.567 15.5 9.5ZM14 9.5C14 10.6046 13.1046 11.5 12 11.5C10.8954 11.5 10 10.6046 10 9.5C10 8.39543 10.8954 7.5 12 7.5C13.1046 7.5 14 8.39543 14 9.5Z" fill="#242424"/>
<path fill-rule="evenodd" clip-rule="evenodd" d="M19 9.92308C19 12.8284 14.9583 17.7142 13.0171 19.8931C12.4037 20.5817 12 21 12 21C12 21 11.5963 20.5817 10.9829 19.8931C9.04175 17.7142 5 12.8284 5 9.92308C5 6.09957 8.13401 3 12 3C15.866 3 19 6.09957 19 9.92308ZM17.5 9.92308C17.5 10.492 17.2147 11.3884 16.5858 12.5553C15.9818 13.6761 15.1585 14.8713 14.3079 15.9849C13.4741 17.0766 12.6368 18.0606 12 18.7795C11.3632 18.0606 10.5259 17.0766 9.69208 15.9849C8.84154 14.8713 8.01823 13.6761 7.4142 12.5553C6.78534 11.3884 6.5 10.492 6.5 9.92308C6.5 6.94358 8.94676 4.5 12 4.5C15.0532 4.5 17.5 6.94358 17.5 9.92308Z" fill="#242424"/>
</svg>
