<svg width="24" height="24" viewBox="0 0 24 24" fill="none" xmlns="http://www.w3.org/2000/svg">
<path fill-rule="evenodd" clip-rule="evenodd" d="M16.9567 18.0175C15.4803 19.2549 13.5772 20 11.5 20C6.80558 20 3 16.1944 3 11.5C3 6.80558 6.80558 3 11.5 3C16.1944 3 20 6.80558 20 11.5C20 13.5772 19.2549 15.4804 18.0174 16.9568L21 19.9394L19.9393 21.0001L16.9567 18.0175ZM18.5 11.5C18.5 15.366 15.366 18.5 11.5 18.5C7.63401 18.5 4.5 15.366 4.5 11.5C4.5 7.63401 7.63401 4.5 11.5 4.5C15.366 4.5 18.5 7.63401 18.5 11.5Z" fill="#242424"/>
</svg>
